<?xml version="1.0" encoding="utf-8"?>
<!-- Generator: Adobe Illustrator 25.3.0, SVG Export Plug-In . SVG Version: 6.00 Build 0)  -->
<svg version="1.1" id="Layer_1" xmlns="http://www.w3.org/2000/svg" xmlns:xlink="http://www.w3.org/1999/xlink" x="0px" y="0px"
	 viewBox="0 0 856 146.14" style="enable-background:new 0 0 856 146.14;" xml:space="preserve">
<style type="text/css">
	.st0{fill:#FFFFFF;}
	.st1{fill:#F15A24;}
</style>
<g>
	<path d="M193.91,100.52V88.17h-12.35V26.2h12.35V13.85h61.97V26.2h12.35v12.43h-24.77V26.2h-37.12v61.97h37.12V75.75h24.77v12.43
		h-12.35v12.35H193.91z"/>
	<path d="M385.88,101.58V27.26h-12.35V14.92h24.77v12.35h12.35v74.32H385.88z M435.42,101.58V27.26h-24.77V14.92h37.2v12.35h12.35
		v74.32H435.42z"/>
	<path d="M674.35,100.4V88.05h-12.35V26.08h12.35V13.73h61.97v12.35h12.35v24.77h-61.89v37.2h37.12V75.63h24.77v12.43h-12.35v12.35
		H674.35z M723.9,38.51V26.08h-37.12v12.43H723.9z"/>
	<path d="M32.26,101.48V12.65h14.21v88.82H32.26z M40.08,53.34c0-9.59,1.83-17.38,5.51-23.36c3.67-5.98,8.38-10.42,14.12-13.32
		c5.74-2.9,11.81-4.35,18.21-4.35v13.32c-5.21,0-10.21,0.86-15.01,2.58c-4.8,1.72-8.74,4.53-11.81,8.44
		c-3.08,3.91-4.62,9.24-4.62,15.99L40.08,53.34z"/>
	<path d="M128.85,104.79c-8.65,0-16.29-1.98-22.92-5.95c-6.63-3.97-11.81-9.44-15.54-16.43c-3.73-6.99-5.6-15.04-5.6-24.16
		c0-9.12,1.87-17.17,5.6-24.16c3.73-6.99,8.88-12.46,15.46-16.43c6.57-3.97,14.12-5.95,22.65-5.95c8.29,0,15.46,2.04,21.5,6.13
		c6.04,4.09,10.72,9.8,14.03,17.14c3.31,7.34,4.97,15.99,4.97,25.94H95.63l3.55-3.02c0,7.11,1.27,13.21,3.82,18.3
		c2.55,5.09,6.13,8.97,10.75,11.64s9.89,4,15.81,4c6.28,0,11.57-1.48,15.9-4.44c4.32-2.96,7.67-6.87,10.04-11.72l12.26,6.22
		c-2.25,4.62-5.24,8.65-8.97,12.08c-3.73,3.44-8.11,6.1-13.15,7.99C140.6,103.85,135,104.79,128.85,104.79z M100.07,51.86
		l-3.73-2.84h61.29l-3.73,3.02c0-5.68-1.13-10.6-3.38-14.75c-2.25-4.14-5.27-7.34-9.06-9.59c-3.79-2.25-8.17-3.38-13.15-3.38
		c-4.86,0-9.45,1.13-13.77,3.38c-4.32,2.25-7.82,5.42-10.48,9.5C101.4,41.28,100.07,46.17,100.07,51.86z"/>
	<path d="M323.66,103.61c-8.77,0-16.49-1.98-23.18-5.95c-6.69-3.97-11.93-9.44-15.72-16.43c-3.79-6.99-5.69-15.04-5.69-24.16
		c0-9.12,1.87-17.17,5.6-24.16c3.73-6.99,8.94-12.46,15.63-16.43c6.69-3.97,14.36-5.95,23.01-5.95c8.64,0,16.31,1.98,23.01,5.95
		c6.69,3.97,11.9,9.45,15.63,16.43c3.73,6.99,5.6,15.04,5.6,24.16c0,9.12-1.87,17.17-5.6,24.16c-3.73,6.99-8.91,12.47-15.54,16.43
		C339.77,101.63,332.19,103.61,323.66,103.61z M323.49,90.46c5.8,0,10.93-1.42,15.37-4.26s7.93-6.78,10.48-11.81
		c2.55-5.03,3.82-10.81,3.82-17.32c0-6.51-1.27-12.29-3.82-17.32c-2.55-5.03-6.07-8.97-10.57-11.81c-4.5-2.84-9.71-4.26-15.63-4.26
		c-5.8,0-10.93,1.42-15.37,4.26c-4.44,2.84-7.94,6.75-10.48,11.72c-2.55,4.97-3.82,10.78-3.82,17.41c0,6.51,1.27,12.29,3.82,17.32
		c2.55,5.04,6.1,8.97,10.66,11.81C312.5,89.04,317.68,90.46,323.49,90.46z"/>
	<path d="M518.19,103.61c-8.65,0-16.28-1.98-22.92-5.95c-6.63-3.97-11.81-9.44-15.54-16.43c-3.73-6.99-5.6-15.04-5.6-24.16
		c0-9.12,1.86-17.17,5.6-24.16c3.73-6.99,8.88-12.46,15.46-16.43c6.57-3.97,14.12-5.95,22.65-5.95c8.29,0,15.46,2.04,21.5,6.13
		c6.04,4.09,10.72,9.8,14.03,17.14c3.31,7.34,4.97,15.99,4.97,25.94h-73.37l3.55-3.02c0,7.11,1.27,13.21,3.82,18.3
		c2.54,5.09,6.13,8.97,10.75,11.64c4.62,2.66,9.89,4,15.81,4c6.28,0,11.58-1.48,15.9-4.44c4.32-2.96,7.67-6.87,10.04-11.72
		l12.26,6.22c-2.25,4.62-5.24,8.65-8.97,12.08c-3.73,3.44-8.11,6.1-13.15,7.99C529.94,102.66,524.34,103.61,518.19,103.61z
		 M489.41,50.67l-3.73-2.84h61.29l-3.73,3.02c0-5.68-1.13-10.6-3.37-14.75c-2.25-4.14-5.27-7.34-9.06-9.59
		c-3.79-2.25-8.17-3.38-13.15-3.38c-4.86,0-9.45,1.13-13.77,3.38c-4.33,2.25-7.82,5.42-10.48,9.5
		C490.74,40.1,489.41,44.99,489.41,50.67z"/>
	<path d="M601.51,101.48l-38.37-88.82h15.1l33.04,79.05l4.26,9.77H601.51z M581.96,139.14c-2.25,0-4.86-0.44-7.82-1.33
		c-2.96-0.89-6.1-2.04-9.42-3.46l5.33-11.9c2.72,1.18,5.12,2.07,7.2,2.66c2.07,0.59,3.7,0.89,4.89,0.89c3.2,0,5.83-0.86,7.91-2.58
		c2.07-1.72,3.82-4.17,5.24-7.37l10.13-24.16l32.87-79.23h15.28l-42.64,101.26c-2.25,5.21-4.59,9.71-7.02,13.5
		c-2.43,3.79-5.36,6.69-8.79,8.7C591.67,138.13,587.29,139.14,581.96,139.14z"/>
	<path d="M793.36,103.61c-6.51,0-12.2-0.98-17.05-2.93c-4.86-1.95-8.91-4.53-12.17-7.73c-3.26-3.2-5.6-6.69-7.02-10.48l12.44-5.15
		c2.01,4.03,5.03,7.28,9.06,9.77c4.02,2.49,8.47,3.73,13.32,3.73c5.57,0,10.24-1.09,14.03-3.29c3.79-2.19,5.68-5.3,5.68-9.33
		c0-3.67-1.39-6.63-4.18-8.88c-2.78-2.25-6.9-4.09-12.35-5.51l-8.53-2.31c-8.06-2.13-14.33-5.36-18.83-9.68
		c-4.5-4.32-6.75-9.21-6.75-14.66c0-8.41,2.75-14.95,8.26-19.63c5.51-4.68,13.71-7.02,24.6-7.02c5.21,0,9.95,0.77,14.21,2.31
		c4.26,1.54,7.93,3.7,11.01,6.48c3.08,2.78,5.33,6.07,6.75,9.86l-12.44,5.51c-1.54-4.02-4.09-6.93-7.64-8.7
		c-3.55-1.78-7.88-2.66-12.97-2.66c-5.45,0-9.71,1.15-12.79,3.46c-3.08,2.31-4.62,5.54-4.62,9.68c0,2.37,1.27,4.59,3.82,6.66
		c2.55,2.07,6.31,3.76,11.28,5.06l8.88,2.31c5.8,1.42,10.66,3.53,14.57,6.31c3.91,2.78,6.87,5.95,8.88,9.5
		c2.01,3.55,3.02,7.34,3.02,11.37c0,5.33-1.42,9.95-4.26,13.86c-2.84,3.91-6.69,6.9-11.55,8.97
		C805.2,102.57,799.64,103.61,793.36,103.61z"/>
	<rect x="243.45" y="4.86" class="st0" width="12.43" height="12.43"/>
	<rect x="243.45" y="96.21" class="st0" width="12.43" height="12.43"/>
	<rect x="12.35" y="12.26" class="st1" width="12.43" height="12.43"/>
	<rect x="742.46" y="94.31" class="st1" width="12.43" height="12.43"/>
	<rect x="453.24" y="9.34" class="st1" width="12.43" height="12.43"/>
	<rect x="176.75" y="8.7" class="st1" width="12.43" height="12.43"/>
	<rect x="829.23" y="91.82" class="st1" width="12.43" height="12.43"/>
</g>
</svg>
